<svg width="512" height="512" viewBox="0 0 512 512" fill="none" xmlns="http://www.w3.org/2000/svg" role="img" aria-labelledby="title desc">
  <title id="title">CardBridge favicon</title>
  <desc id="desc">Compact CardBridge circuit bridge icon for browser tabs.</desc>
  <rect width="512" height="512" rx="112" fill="#07111F"/>
  <g transform="translate(50 120) scale(0.405)">
    <path d="M220 540 H322 C368 540 375 507 401 472 L455 400 C474 375 493 365 526 365 H590 C623 365 642 375 661 400 L715 472 C741 507 748 540 794 540 H852" stroke="#FFFFFF" stroke-width="54" stroke-linecap="round" stroke-linejoin="round"/>
    <path d="M360 430 L456 316 C477 292 498 282 532 282 H584 C618 282 639 292 660 316 L756 430" stroke="#FFFFFF" stroke-width="54" stroke-linecap="round" stroke-linejoin="round"/>
    <rect x="134" y="484" width="86" height="86" rx="11" stroke="#FFFFFF" stroke-width="54" stroke-linejoin="round"/>
    <rect x="852" y="470" width="112" height="112" rx="13" stroke="#FFFFFF" stroke-width="54" stroke-linejoin="round"/>
    <circle cx="360" cy="430" r="37" fill="#FFFFFF"/>
    <circle cx="756" cy="430" r="37" fill="#FFFFFF"/>
  </g>
</svg>
